<svg id="Layer_1" data-name="Layer 1" xmlns="http://www.w3.org/2000/svg" xmlns:xlink="http://www.w3.org/1999/xlink" viewBox="0 0 2389.39 529.58"><defs><style>.cls-1{fill:none;}.cls-2{clip-path:url(#clip-path);}.cls-3{fill:#ec1c24;}.cls-4{fill:#202827;}.cls-5{fill:#fcb541;}.cls-6{fill:#3c66f5;}.cls-10,.cls-7,.cls-9{fill:#caa82d;}.cls-8{fill:#fff;}.cls-9{font-size:66px;}.cls-10,.cls-9{font-family:ChateaudeGarage, Chateau de Garage;}.cls-10{font-size:146.99px;}</style><clipPath id="clip-path" transform="translate(-79.36 -97.01)"><rect class="cls-1" x="-231.58" y="20.54" width="1024" height="768"/></clipPath></defs><title>logo</title><g class="cls-2"><path class="cls-3" d="M582.69,404.54" transform="translate(-79.36 -97.01)"/><path class="cls-3" d="M582.69,404.54" transform="translate(-79.36 -97.01)"/><path class="cls-4" d="M571.91,404.54" transform="translate(-79.36 -97.01)"/><path class="cls-4" d="M280.42,696" transform="translate(-79.36 -97.01)"/><path class="cls-5" d="M481.47,404.54c0-111-90-201.06-201.06-201.06S79.36,293.5,79.36,404.54s90,201.06,201.06,201.06,201.06-90,201.06-201.06" transform="translate(-79.36 -97.01)"/><path class="cls-6" d="M473.8,404.54c0-106.81-86.58-193.39-193.39-193.39S87,297.74,87,404.54s86.58,193.39,193.39,193.39S473.8,511.35,473.8,404.54" transform="translate(-79.36 -97.01)"/><path class="cls-4" d="M582.69,626.59s-15.28-49.57-53-87.69l-4.17-58s-58.44-2.08-108.22.59l-24.12-33.24,5.56-10.68s28.75-10.68,82.56,20.48c0,0,51-210.43-153.06-259.1C266.68,185.06,154.5,193.64,100.08,304c0,0,70.5,7.12,107.6,46.3,0,0-.93,168.28,5.57,184.31l19.48-15.14,10.2,73.9s32.71-43.65,63.78-61.69c32.29,4.43,187.63,28.64,276,94.86" transform="translate(-79.36 -97.01)"/><path class="cls-7" d="M219.74,386s-1.5,107,.54,128.29l12.91-12.1L235,454.52s20.25-13.79,44.06-20l-3.71,14.25-28.76,20.48s-1.85,73.46,2.78,91.26c0,0,41.28-61,65.86-72.57,0,0-14.84-40.51-.46-73,0,0-72.82,25.38-95.08-28.94" transform="translate(-79.36 -97.01)"/><path class="cls-7" d="M325,415.34s-10.67,35.61-.46,49.42c0,0,32.93-20.92,59.83-20.48,0,0,1.85-26.26-12.53-42.74,0,0-14.84,14.69-46.84,13.8" transform="translate(-79.36 -97.01)"/><path class="cls-7" d="M250.35,402s7.62,4.23,27.56,4.86c12.21.39,29.62-1.76,35.52-5.75,0,0-3-17-18.09-19.59,0,0,19.94-9.79,55.66,17.81l7.89-.45s-34.35-46.69-90.33-16.72c-6.23,3.34-15,11.38-18.21,19.84" transform="translate(-79.36 -97.01)"/><path class="cls-7" d="M228.09,379.28s9.74,12.46,12.52,13.35c0,0,40.81-45.85,96-25.37,0,0,20.41,10.24,29.68,25.37,0,0-19.65-58-97.4-37.39-11.54,3.06-28.64,12.06-40.81,24" transform="translate(-79.36 -97.01)"/><path class="cls-7" d="M326.88,484.35s51.49-14.25,72.82-6.68l-17.16-25.38s-41.28,9.35-55.66,32.05" transform="translate(-79.36 -97.01)"/><path class="cls-3" d="M514.72,495.48A350.26,350.26,0,0,0,442.2,492c-32.46,0-70.82,2.07-104,9.75l32.08,0c-28.55,6.2-46.61,12.93-46.61,12.93,90.91-4.9,192.48,16.92,192.48,16.92Z" transform="translate(-79.36 -97.01)"/><path class="cls-8" d="M248,453.18l17.62-8.24s-9.74,20.7-17.62,8.24" transform="translate(-79.36 -97.01)"/><path class="cls-3" d="M323.31,526s146.41,18.65,230.46,68.1c0,0-19-29.49-36.15-45.11,0,0-94.9-25.59-194.31-23" transform="translate(-79.36 -97.01)"/><path class="cls-7" d="M318.16,513.71a8.65,8.65,0,1,1-8.64-8.29,8.47,8.47,0,0,1,8.64,8.29" transform="translate(-79.36 -97.01)"/><path class="cls-4" d="M306.83,513.45a4.88,4.88,0,0,1,3.69-4.65,5.34,5.34,0,0,0-.84-.08,4.86,4.86,0,1,0,0,9.72,5.18,5.18,0,0,0,1.38-.21,4.92,4.92,0,0,1-4.22-4.78" transform="translate(-79.36 -97.01)"/><path class="cls-3" d="M366.61,226.29c-56.52-23.1-161.48-39.51-236.72,63.28C128,292.6,204,304.54,235,352l8.19-3.59c22.26-8.75,85.55-26.88,135.51,24.41-9.11-32.64-67.74-62.84-127.12-39.13-12.87-16-45-49.79-89.1-55.2,0,0,80.5-86.65,196.76-36.79,24.12,11.87,97.71,41,110.08,178.07,0,0,12.39-146.48-102.66-193.51" transform="translate(-79.36 -97.01)"/><polygon class="cls-4" points="178.88 383.41 177.52 457.15 185.66 385.15 202.83 369.97 203.28 359.99 178.88 383.41"/></g><text class="cls-9" transform="matrix(1, -0.01, 0.01, 1.1, 312.04, 65.62)"> </text><text class="cls-10" transform="translate(547.63 362.51) scale(1 1.1)">corporate hooligans</text></svg>